<?xml version="1.0" encoding="utf-8"?>
<!-- Generator: Adobe Illustrator 22.0.1, SVG Export Plug-In . SVG Version: 6.00 Build 0)  -->
<svg version="1.1" xmlns="http://www.w3.org/2000/svg" xmlns:xlink="http://www.w3.org/1999/xlink" x="0px" y="0px"
	 viewBox="0 0 512 512" style="enable-background:new 0 0 512 512;" xml:space="preserve">
<style type="text/css">
	.st0{fill:#7585F0;stroke:#000000;stroke-width:20;stroke-linecap:round;stroke-linejoin:round;stroke-miterlimit:10;}
	.st1{fill:none;stroke:#000000;stroke-width:20;stroke-linecap:round;stroke-linejoin:round;stroke-miterlimit:10;}
	.st2{fill:#FFFFFF;}
	.st3{fill:#E4B75C;stroke:#000000;stroke-width:20;stroke-linecap:round;stroke-linejoin:round;stroke-miterlimit:10;}
	.st4{fill:#DE5A5A;stroke:#000000;stroke-width:20;stroke-linecap:round;stroke-linejoin:round;stroke-miterlimit:10;}
	.st5{fill:#D4F4FF;}
	.st6{fill:#D4F4FF;stroke:#000000;stroke-width:20;stroke-linecap:round;stroke-linejoin:round;stroke-miterlimit:10;}
	.st7{fill:#F2DF98;stroke:#000000;stroke-width:20;stroke-linecap:round;stroke-linejoin:round;stroke-miterlimit:10;}
	.st8{fill:#FFFFFF;stroke:#000000;stroke-width:20;stroke-linecap:round;stroke-linejoin:round;stroke-miterlimit:10;}
	.st9{fill:#87BF8C;stroke:#000000;stroke-width:20;stroke-linecap:round;stroke-linejoin:round;stroke-miterlimit:10;}
	.st10{fill:#7585F0;}
	.st11{fill:#EDD4B4;stroke:#000000;stroke-width:20;stroke-linecap:round;stroke-linejoin:round;stroke-miterlimit:10;}
	.st12{fill:#E4B75C;}
	.st13{fill:#AACF9A;stroke:#000000;stroke-width:20;stroke-linecap:round;stroke-linejoin:round;stroke-miterlimit:10;}
	.st14{fill:#E8C673;stroke:#000000;stroke-width:20;stroke-linecap:round;stroke-linejoin:round;stroke-miterlimit:10;}
	.st15{fill:#F2DF98;}
	.st16{fill:#D0524E;stroke:#000000;stroke-width:20;stroke-linecap:round;stroke-linejoin:round;stroke-miterlimit:10;}
	.st17{fill:#87BF8C;}
	.st18{fill:#AACF9A;}
	.st19{fill:#DE5A5A;}
	.st20{fill:#E8C673;}
	.st21{fill:#7ACBAA;}
	.st22{fill:#EFCDC2;}
	.st23{fill:#6B7DFA;stroke:#000000;stroke-width:20;stroke-linecap:round;stroke-linejoin:round;stroke-miterlimit:10;}
</style>
<g id="GUIDELINES">
</g>
<g id="ICON_1_">
	<g>
		<g>
			<g>
				<path class="st10" d="M448,481.7l40.7-40.8c13.5-13.5,13.5-35.3,0-48.8l-368.8-369c-13.5-13.5-35.3-13.5-48.8,0L30.4,63.8"/>
				<path class="st1" d="M258.9,162.1l-138.9-139c-13.5-13.5-35.3-13.5-48.8,0L30.4,63.8"/>
				<path class="st1" d="M448,481.7l40.7-40.8c13.5-13.5,13.5-35.3,0-48.8L351.1,254.4"/>
				<path class="st2" d="M30.4,63.8L23.2,71c-13.5,13.5-13.5,35.3,0,48.8l368.8,369c13.5,13.5,35.3,13.5,48.8,0l7.2-7.2L120.3,153.8
					"/>
				<line class="st1" x1="193.6" y1="227.1" x2="120.3" y2="153.8"/>
				<path class="st1" d="M253.1,349.9l138.9,139c13.5,13.5,35.3,13.5,48.8,0l7.2-7.2l-163.9-164"/>
				<path class="st1" d="M30.4,63.8L23.2,71c-13.5,13.5-13.5,35.3,0,48.8l138.9,139"/>
			</g>
			<g>
				<line class="st1" x1="153" y1="56.2" x2="125.9" y2="83.3"/>
				<line class="st1" x1="228.7" y1="131.9" x2="208.8" y2="151.9"/>
				<line class="st1" x1="304.4" y1="207.6" x2="277.2" y2="234.7"/>
				<line class="st1" x1="380" y1="283.3" x2="360.1" y2="303.3"/>
				<line class="st1" x1="455.7" y1="359" x2="428.6" y2="386.2"/>
			</g>
		</g>
		<g>
			<g>
				<path class="st8" d="M57.2,367.9L57.2,367.9c-15.4,15.4-26,35-30.5,56.3l-1.5,7.2L80.7,487l7.2-1.5
					c21.3-4.5,40.9-15.1,56.3-30.6l0,0"/>
				<g>
					<path class="st12" d="M107.7,404.4c-1.9,13.5,2.3,27.7,12.7,38.1c6.7,6.7,15.1,10.9,23.8,12.4l277.5-277.6l-43.5-43.5"/>
					<line class="st1" x1="421.6" y1="177.3" x2="378.1" y2="133.8"/>
					<path class="st1" d="M107.7,404.4c-1.9,13.5,2.3,27.7,12.7,38.1c6.7,6.7,15.1,10.9,23.8,12.4l243.1-243.3"/>
					<path class="st7" d="M150.2,361.8l227.9-228l-43.5-43.5L57.2,367.9c1.6,8.7,5.7,17,12.4,23.8c10.4,10.4,24.6,14.6,38.1,12.7"/>
				</g>
				<polygon class="st0" points="80.7,487 25.1,431.4 10.2,502 				"/>
			</g>
			<g>
				<path class="st4" d="M491.6,107.2c13.6-13.6,13.6-35.7,0-49.3L454,20.2c-13.6-13.6-35.7-13.6-49.3,0l-29.9,29.9l86.9,87
					L491.6,107.2z"/>
				
					<rect x="369.8" y="52.2" transform="matrix(0.7069 -0.7073 0.7073 0.7069 36.3089 314.9975)" class="st8" width="56.8" height="123"/>
			</g>
		</g>
	</g>
</g>
</svg>
