<?xml version="1.0" encoding="utf-8"?>
<!-- Generator: Adobe Illustrator 22.0.1, SVG Export Plug-In . SVG Version: 6.00 Build 0)  -->
<svg version="1.1" xmlns="http://www.w3.org/2000/svg" xmlns:xlink="http://www.w3.org/1999/xlink" x="0px" y="0px"
	 viewBox="0 0 512 512" style="enable-background:new 0 0 512 512;" xml:space="preserve">
<style type="text/css">
	.st0{fill:#7585F0;stroke:#000000;stroke-width:20;stroke-linecap:round;stroke-linejoin:round;stroke-miterlimit:10;}
	.st1{fill:none;stroke:#000000;stroke-width:20;stroke-linecap:round;stroke-linejoin:round;stroke-miterlimit:10;}
	.st2{fill:#FFFFFF;}
	.st3{fill:#E4B75C;stroke:#000000;stroke-width:20;stroke-linecap:round;stroke-linejoin:round;stroke-miterlimit:10;}
	.st4{fill:#DE5A5A;stroke:#000000;stroke-width:20;stroke-linecap:round;stroke-linejoin:round;stroke-miterlimit:10;}
	.st5{fill:#D4F4FF;}
	.st6{fill:#D4F4FF;stroke:#000000;stroke-width:20;stroke-linecap:round;stroke-linejoin:round;stroke-miterlimit:10;}
	.st7{fill:#F2DF98;stroke:#000000;stroke-width:20;stroke-linecap:round;stroke-linejoin:round;stroke-miterlimit:10;}
	.st8{fill:#FFFFFF;stroke:#000000;stroke-width:20;stroke-linecap:round;stroke-linejoin:round;stroke-miterlimit:10;}
	.st9{fill:#87BF8C;stroke:#000000;stroke-width:20;stroke-linecap:round;stroke-linejoin:round;stroke-miterlimit:10;}
	.st10{fill:#7585F0;}
	.st11{fill:#EDD4B4;stroke:#000000;stroke-width:20;stroke-linecap:round;stroke-linejoin:round;stroke-miterlimit:10;}
	.st12{fill:#E4B75C;}
	.st13{fill:#AACF9A;stroke:#000000;stroke-width:20;stroke-linecap:round;stroke-linejoin:round;stroke-miterlimit:10;}
	.st14{fill:#E8C673;stroke:#000000;stroke-width:20;stroke-linecap:round;stroke-linejoin:round;stroke-miterlimit:10;}
	.st15{fill:#F2DF98;}
	.st16{fill:#D0524E;stroke:#000000;stroke-width:20;stroke-linecap:round;stroke-linejoin:round;stroke-miterlimit:10;}
	.st17{fill:#87BF8C;}
	.st18{fill:#AACF9A;}
	.st19{fill:#DE5A5A;}
	.st20{fill:#E8C673;}
	.st21{fill:#7ACBAA;}
	.st22{fill:#EFCDC2;}
	.st23{fill:#6B7DFA;stroke:#000000;stroke-width:20;stroke-linecap:round;stroke-linejoin:round;stroke-miterlimit:10;}
</style>
<g id="GUIDELINES">
</g>
<g id="ICON_1_">
	<g>
		<g>
			<path class="st0" d="M49.7,61.3H29.9c-11,0-19.9,8.9-19.9,19.9v318.5c0,28.5,23.1,51.6,51.6,51.6h148
				c8.9,16.5,26.3,27.7,46.4,27.7c20.1,0,37.5-11.2,46.4-27.7h148c28.5,0,51.6-23.1,51.6-51.6V81.3c0-11-8.9-19.9-19.9-19.9h-19.8"
				/>
			<g>
				<path class="st5" d="M462,360V56.3l0-3.2c0.1-11.1-8.8-20.2-19.9-20.2h-147c-11.7,0-22.4,6.4-27.9,16.7v0
					c-1.7,3.2-5.6,6.7-11.2,6.7V360h141"/>
				<path class="st7" d="M256,360v77.3c5.6,0,9.5-3.5,11.2-6.7l11.3-21h23.9H428c18.8,0,34-15.2,34-34V360H256z"/>
				<line class="st1" x1="256" y1="360" x2="397" y2="360"/>
				<path class="st1" d="M462,150.9V56.3l0-3.2c0.1-11.1-8.8-20.2-19.9-20.2h-147c-9.7,0-18.8,4.4-24.8,11.9"/>
				<line class="st1" x1="462" y1="360" x2="462" y2="227"/>
			</g>
			<g>
				<path class="st7" d="M50,360v15.5c0,18.8,15.2,34,34,34h125.6h23.9l11.3,21c1.7,3.2,5.6,6.7,11.2,6.7V360"/>
				<path class="st2" d="M123,360h133V56.3c-5.6,0-9.5-3.5-11.2-6.7l0,0c-5.5-10.3-16.3-16.7-27.9-16.7h-147
					C58.8,32.9,49.8,42,50,53.1l0,3.2V360"/>
				<line class="st1" x1="123" y1="360" x2="256" y2="360"/>
				<path class="st1" d="M240.5,43.5c-5.9-6.7-14.5-10.6-23.7-10.6h-147C58.8,32.9,49.8,42,50,53.1l0,3.2V360"/>
			</g>
		</g>
		<g>
			<g>
				<path class="st20" d="M375.7,164.5c0-66.7-54.6-120.7-121.6-119.7c-65,1-117.7,54.4-117.9,119.3c-0.2,50.5,31,93.8,75.2,111.6
					c8.7,3.5,14.3,12,14.3,21.4v8.5h60.6v-4.9c0-11.4,6.8-21.7,17.2-26.2C346,256.1,375.7,213.8,375.7,164.5z"/>
				<path class="st1" d="M375.7,164.5c0-66.2-53.7-119.9-120-119.7"/>
				<path class="st1" d="M286.7,295.9c1.6-9.4,7.8-17.6,16.8-21.4c27.5-11.9,49.6-33.7,61.8-61"/>
				<path class="st1" d="M256,44.8c-66.1,0-119.7,53.6-119.7,119.7c0,51.2,32.1,94.8,77.2,112c7.4,2.8,12.2,9.8,12.2,17.7v2.8"/>
				<path class="st6" d="M272.1,329c8.6,0,15.5,6.9,15.5,15.5v0c0,8.6-6.9,15.5-15.5,15.5h-32.2c-8.6,0-15.5-6.9-15.5-15.5v0
					c0-8.6,6.9-15.5,15.5-15.5"/>
				<path class="st0" d="M242,329h-19.3c-8.6,0-15.5-6.9-15.5-15.5v0c0-8.6,6.9-15.5,15.5-15.5h66.7c8.6,0,15.5,6.9,15.5,15.5v0
					c0,8.6-6.9,15.5-15.5,15.5H242"/>
			</g>
			<polyline class="st14" points="275.3,176.8 256,230.9 236.7,176.8 			"/>
		</g>
		<g>
			<line class="st1" x1="97.3" y1="259.6" x2="180.5" y2="259.6"/>
			<line class="st1" x1="331.5" y1="259.6" x2="414.7" y2="259.6"/>
		</g>
		<g>
			<line class="st1" x1="97.3" y1="122.7" x2="140" y2="122.7"/>
			<line class="st1" x1="375.4" y1="122.7" x2="414.7" y2="122.7"/>
		</g>
		<g>
			<line class="st1" x1="97.3" y1="164.5" x2="130" y2="164.5"/>
			<line class="st1" x1="377.4" y1="164.5" x2="414.7" y2="164.5"/>
		</g>
	</g>
</g>
</svg>
