<?xml version="1.0" encoding="utf-8"?>
<!-- Generator: Adobe Illustrator 22.0.1, SVG Export Plug-In . SVG Version: 6.00 Build 0)  -->
<svg version="1.1" xmlns="http://www.w3.org/2000/svg" xmlns:xlink="http://www.w3.org/1999/xlink" x="0px" y="0px"
	 viewBox="0 0 512 512" style="enable-background:new 0 0 512 512;" xml:space="preserve">
<style type="text/css">
	.st0{fill:#7585F0;stroke:#000000;stroke-width:20;stroke-linecap:round;stroke-linejoin:round;stroke-miterlimit:10;}
	.st1{fill:none;stroke:#000000;stroke-width:20;stroke-linecap:round;stroke-linejoin:round;stroke-miterlimit:10;}
	.st2{fill:#FFFFFF;}
	.st3{fill:#E4B75C;stroke:#000000;stroke-width:20;stroke-linecap:round;stroke-linejoin:round;stroke-miterlimit:10;}
	.st4{fill:#DE5A5A;stroke:#000000;stroke-width:20;stroke-linecap:round;stroke-linejoin:round;stroke-miterlimit:10;}
	.st5{fill:#D4F4FF;}
	.st6{fill:#D4F4FF;stroke:#000000;stroke-width:20;stroke-linecap:round;stroke-linejoin:round;stroke-miterlimit:10;}
	.st7{fill:#F2DF98;stroke:#000000;stroke-width:20;stroke-linecap:round;stroke-linejoin:round;stroke-miterlimit:10;}
	.st8{fill:#FFFFFF;stroke:#000000;stroke-width:20;stroke-linecap:round;stroke-linejoin:round;stroke-miterlimit:10;}
	.st9{fill:#87BF8C;stroke:#000000;stroke-width:20;stroke-linecap:round;stroke-linejoin:round;stroke-miterlimit:10;}
	.st10{fill:#7585F0;}
	.st11{fill:#EDD4B4;stroke:#000000;stroke-width:20;stroke-linecap:round;stroke-linejoin:round;stroke-miterlimit:10;}
	.st12{fill:#E4B75C;}
	.st13{fill:#AACF9A;stroke:#000000;stroke-width:20;stroke-linecap:round;stroke-linejoin:round;stroke-miterlimit:10;}
	.st14{fill:#E8C673;stroke:#000000;stroke-width:20;stroke-linecap:round;stroke-linejoin:round;stroke-miterlimit:10;}
	.st15{fill:#F2DF98;}
	.st16{fill:#D0524E;stroke:#000000;stroke-width:20;stroke-linecap:round;stroke-linejoin:round;stroke-miterlimit:10;}
	.st17{fill:#87BF8C;}
	.st18{fill:#AACF9A;}
	.st19{fill:#DE5A5A;}
	.st20{fill:#E8C673;}
	.st21{fill:#7ACBAA;}
	.st22{fill:#EFCDC2;}
	.st23{fill:#6B7DFA;stroke:#000000;stroke-width:20;stroke-linecap:round;stroke-linejoin:round;stroke-miterlimit:10;}
</style>
<g id="GUIDELINES">
</g>
<g id="ICON_1_">
	<g>
		<g>
			<g>
				<g>
					<path class="st8" d="M490.6,179.6L490.6,179.6c0-19.3-5.6-38.2-16.1-54.3l-3.5-5.4h-69.7l-3.5,5.4
						c-10.5,16.2-16.1,35.1-16.1,54.3v0"/>
					<g>
						<path class="st12" d="M436.1,188.4c-7.3-9.6-18.8-15.9-31.8-15.9c-8.4,0-16.3,2.6-22.7,7.1v203.8h54.5"/>
						<line class="st1" x1="381.5" y1="383.5" x2="436.1" y2="383.5"/>
						<path class="st1" d="M436.1,188.4c-7.3-9.6-18.8-15.9-31.8-15.9c-8.4,0-16.3,2.6-22.7,7.1v160.8"/>
						<path class="st7" d="M436.1,241.7v141.8h54.5V179.6c-6.4-4.5-14.3-7.1-22.7-7.1c-13,0-24.6,6.2-31.8,15.9"/>
					</g>
					<polygon class="st0" points="401.2,119.8 470.9,119.8 436.1,66.3 					"/>
				</g>
				<g>
					<path class="st4" d="M381.5,471.1c0,17,13.8,30.9,30.9,30.9h47.2c17.1,0,30.9-13.8,30.9-30.9v-37.4H381.5V471.1z"/>
					<rect x="381.5" y="383.5" class="st8" width="109.1" height="50.3"/>
				</g>
			</g>
			<g>
				<g>
					<path class="st10" d="M76,68.2C61.5,70,48.6,81.4,38,96.2c-14.2,20-8.6,56.1-5,80.3l9.4,45.7c23.6-2.9,30.7,0.9,30.7-22.8v-6.4
						c0-20.6,16.7-18.2,37.3-18.2h145.2"/>
					<path class="st1" d="M64.3,71.8C54.5,76.6,45.7,85.5,38,96.2c-14.2,20-8.6,56.1-5,80.3l9.4,45.7c11.2-1.4,18.7-1.2,23.5-3.3"/>
					<path class="st10" d="M272,199.4c0,23.7,7.1,19.9,30.7,22.8l10.2-51.2c3.5-23.3,14.1-61.3-7.2-71.5
						c-18.5-8.9-22.8,20.3-22.8,20.3c0-96.5-90.2-82-155.4-106.1C70.7-7.5,63.2,69,63.2,113.3"/>
					<path class="st1" d="M284.3,220.3c4.5,0.7,10.5,1,18.4,1.9l10.2-51.2c3.5-23.3,14.1-61.3-7.2-71.5
						c-18.5-8.9-22.8,20.3-22.8,20.3c0-96.5-90.2-82-155.4-106.1C70.7-7.5,63.2,69,63.2,113.3"/>
				</g>
				<path class="st6" d="M324.8,502H21.5l-0.1-62c0-34.1,27.6-61.7,61.7-61.7h179.9c34.1,0,61.7,27.6,61.7,61.6V502z"/>
				<path class="st11" d="M223.1,123.8L223.1,123.8c-19.2,21.1-46.4,33.1-74.9,33.1H80.4c-7.8,0-14.1,6.3-14.1,14.1v58.2h1.3
					c-10.2,0-18.5,8.3-18.5,18.5l0,0c0,10.2,8.3,18.5,18.5,18.5h2.6c9.2,36,34.8,64.4,79.5,74.9v37.3h46.6V341
					c44.6-10.5,70.3-38.8,79.5-74.9h2.6c10.2,0,18.5-8.3,18.5-18.5l0,0c0-10.2-8.3-18.5-18.5-18.5h1.3v-45.9"/>
				<g>
					<g>
						<path class="st1" d="M227.9,225.4L227.9,225.4c-6.8,0-12.3-5.5-12.3-12.3v-5h24.6"/>
						<line class="st1" x1="223.2" y1="208.2" x2="246.8" y2="208.2"/>
					</g>
					<g>
						<path class="st1" d="M118.3,225.4L118.3,225.4c6.8,0,12.3-5.5,12.3-12.3v-5H106"/>
						<line class="st1" x1="123" y1="208.2" x2="99.4" y2="208.2"/>
					</g>
				</g>
				<polygon class="st8" points="238.7,378.4 107.1,378.4 107.1,423.1 172.9,389.2 238.7,423.1 				"/>
			</g>
		</g>
		<path class="st1" d="M163.3,292.5l0.2,0.1c6.2,2.5,13,2.4,19.2-0.1l0,0"/>
	</g>
</g>
</svg>
